<svg aria-roledescription="er" role="graphics-document document" viewBox="0 0 540.509033203125 729.046875" height="729.046875" xmlns="http://www.w3.org/2000/svg" width="540.509033203125" id="tmpMermaidElement6350"><style>#tmpMermaidElement {background: white;}#tmpMermaidElement6350{font-family:"trebuchet ms",verdana,arial,sans-serif;font-size:16px;fill:#333;}#tmpMermaidElement6350 .error-icon{fill:#552222;}#tmpMermaidElement6350 .error-text{fill:#552222;stroke:#552222;}#tmpMermaidElement6350 .edge-thickness-normal{stroke-width:2px;}#tmpMermaidElement6350 .edge-thickness-thick{stroke-width:3.5px;}#tmpMermaidElement6350 .edge-pattern-solid{stroke-dasharray:0;}#tmpMermaidElement6350 .edge-pattern-dashed{stroke-dasharray:3;}#tmpMermaidElement6350 .edge-pattern-dotted{stroke-dasharray:2;}#tmpMermaidElement6350 .marker{fill:#333333;stroke:#333333;}#tmpMermaidElement6350 .marker.cross{stroke:#333333;}#tmpMermaidElement6350 svg{font-family:"trebuchet ms",verdana,arial,sans-serif;font-size:16px;}#tmpMermaidElement6350 .entityBox{fill:#ECECFF;stroke:#9370DB;}#tmpMermaidElement6350 .attributeBoxOdd{fill:#ffffff;stroke:#9370DB;}#tmpMermaidElement6350 .attributeBoxEven{fill:#f2f2f2;stroke:#9370DB;}#tmpMermaidElement6350 .relationshipLabelBox{fill:hsl(80, 100%, 96.2745098039%);opacity:0.7;background-color:hsl(80, 100%, 96.2745098039%);}#tmpMermaidElement6350 .relationshipLabelBox rect{opacity:0.5;}#tmpMermaidElement6350 .relationshipLine{stroke:#333333;}#tmpMermaidElement6350 .entityTitleText{text-anchor:middle;font-size:18px;fill:#333;}#tmpMermaidElement6350 #MD_PARENT_START{fill:#f5f5f5!important;stroke:#333333!important;stroke-width:1;}#tmpMermaidElement6350 #MD_PARENT_END{fill:#f5f5f5!important;stroke:#333333!important;stroke-width:1;}#tmpMermaidElement6350 :root{--mermaid-font-family:"trebuchet ms",verdana,arial,sans-serif;}</style><g></g><defs><marker orient="auto" markerHeight="240" markerWidth="190" refY="7" refX="0" id="MD_PARENT_START"><path d="M 18,7 L9,13 L1,7 L9,1 Z"></path></marker></defs><defs><marker orient="auto" markerHeight="28" markerWidth="20" refY="7" refX="19" id="MD_PARENT_END"><path d="M 18,7 L9,13 L1,7 L9,1 Z"></path></marker></defs><defs><marker orient="auto" markerHeight="18" markerWidth="18" refY="9" refX="0" id="ONLY_ONE_START"><path d="M9,0 L9,18 M15,0 L15,18" fill="none" stroke="gray"></path></marker></defs><defs><marker orient="auto" markerHeight="18" markerWidth="18" refY="9" refX="18" id="ONLY_ONE_END"><path d="M3,0 L3,18 M9,0 L9,18" fill="none" stroke="gray"></path></marker></defs><defs><marker orient="auto" markerHeight="18" markerWidth="30" refY="9" refX="0" id="ZERO_OR_ONE_START"><circle r="6" cy="9" cx="21" fill="white" stroke="gray"></circle><path d="M9,0 L9,18" fill="none" stroke="gray"></path></marker></defs><defs><marker orient="auto" markerHeight="18" markerWidth="30" refY="9" refX="30" id="ZERO_OR_ONE_END"><circle r="6" cy="9" cx="9" fill="white" stroke="gray"></circle><path d="M21,0 L21,18" fill="none" stroke="gray"></path></marker></defs><defs><marker orient="auto" markerHeight="36" markerWidth="45" refY="18" refX="18" id="ONE_OR_MORE_START"><path d="M0,18 Q 18,0 36,18 Q 18,36 0,18 M42,9 L42,27" fill="none" stroke="gray"></path></marker></defs><defs><marker orient="auto" markerHeight="36" markerWidth="45" refY="18" refX="27" id="ONE_OR_MORE_END"><path d="M3,9 L3,27 M9,18 Q27,0 45,18 Q27,36 9,18" fill="none" stroke="gray"></path></marker></defs><defs><marker orient="auto" markerHeight="36" markerWidth="57" refY="18" refX="18" id="ZERO_OR_MORE_START"><circle r="6" cy="18" cx="48" fill="white" stroke="gray"></circle><path d="M0,18 Q18,0 36,18 Q18,36 0,18" fill="none" stroke="gray"></path></marker></defs><defs><marker orient="auto" markerHeight="36" markerWidth="57" refY="18" refX="39" id="ZERO_OR_MORE_END"><circle r="6" cy="18" cx="9" fill="white" stroke="gray"></circle><path d="M21,18 Q39,0 57,18 Q39,36 21,18" fill="none" stroke="gray"></path></marker></defs><path style="stroke: gray; fill: none;" marker-start="url(#ONLY_ONE_START)" marker-end="url(#ZERO_OR_MORE_END)" d="M84.792,450.031L84.792,460.365C84.792,470.698,84.792,491.365,113.883,516.692C142.974,542.019,201.155,572.008,230.246,587.002L259.337,601.996" class="er relationshipLine"></path><path style="stroke: gray; fill: none;" marker-start="url(#ONLY_ONE_START)" marker-end="url(#ZERO_OR_MORE_END)" d="M324.416,462.031L324.416,470.365C324.416,478.698,324.416,495.365,324.416,512.031C324.416,528.698,324.416,545.365,324.416,553.698L324.416,562.031" class="er relationshipLine"></path><path style="stroke: gray; fill: none;" marker-start="url(#ONLY_ONE_START)" marker-end="url(#ZERO_OR_MORE_END)" d="M383.243,151.103L402.578,166.089C421.912,181.074,460.58,211.045,479.915,248.615C499.249,286.185,499.249,331.354,499.249,376.523C499.249,421.693,499.249,466.862,480.957,502.369C462.664,537.876,426.08,563.72,407.788,576.643L389.495,589.565" class="er relationshipLine"></path><path style="stroke: gray; fill: none;" marker-start="url(#ONLY_ONE_START)" marker-end="url(#ZERO_OR_MORE_END)" d="M324.416,191.016L324.416,199.349C324.416,207.682,324.416,224.349,324.416,241.016C324.416,257.682,324.416,274.349,324.416,282.682L324.416,291.016" class="er relationshipLine"></path><path style="stroke: gray; fill: none;" marker-start="url(#ONLY_ONE_START)" marker-end="url(#ZERO_OR_MORE_END)" d="M265.589,138.775L235.456,155.815C205.323,172.855,145.058,206.935,114.925,234.309C84.792,261.682,84.792,282.349,84.792,292.682L84.792,303.016" class="er relationshipLine"></path><g transform="translate(20,303.015625 )" id="entity-CONTACT-26691264-9be6-58e8-9300-138d9eadaa87"><rect height="147.015625" width="129.5836181640625" y="0" x="0" class="er entityBox"></rect><text style="dominant-baseline: middle; text-anchor: middle; font-size: 12px;" transform="translate(64.79180908203125,13.5078125)" y="0" x="0" id="text-entity-CONTACT-26691264-9be6-58e8-9300-138d9eadaa87" class="er entityLabel">CONTACT</text><rect height="24" width="48.703125" y="27.015625" x="0" class="er attributeBoxOdd"></rect><text style="dominant-baseline: middle; font-size: 10.2px;" transform="translate(5,39.015625)" y="0" x="0" id="text-entity-CONTACT-26691264-9be6-58e8-9300-138d9eadaa87-attr-1-type" class="er entityLabel">string</text><rect height="24" width="80.8804931640625" y="27.015625" x="48.703125" class="er attributeBoxOdd"></rect><text style="dominant-baseline: middle; font-size: 10.2px;" transform="translate(53.703125,39.015625)" y="0" x="0" id="text-entity-CONTACT-26691264-9be6-58e8-9300-138d9eadaa87-attr-1-name" class="er entityLabel">firstName</text><rect height="24" width="48.703125" y="51.015625" x="0" class="er attributeBoxEven"></rect><text style="dominant-baseline: middle; font-size: 10.2px;" transform="translate(5,63.015625)" y="0" x="0" id="text-entity-CONTACT-26691264-9be6-58e8-9300-138d9eadaa87-attr-2-type" class="er entityLabel">string</text><rect height="24" width="80.8804931640625" y="51.015625" x="48.703125" class="er attributeBoxEven"></rect><text style="dominant-baseline: middle; font-size: 10.2px;" transform="translate(53.703125,63.015625)" y="0" x="0" id="text-entity-CONTACT-26691264-9be6-58e8-9300-138d9eadaa87-attr-2-name" class="er entityLabel">lastName</text><rect height="24" width="48.703125" y="75.015625" x="0" class="er attributeBoxOdd"></rect><text style="dominant-baseline: middle; font-size: 10.2px;" transform="translate(5,87.015625)" y="0" x="0" id="text-entity-CONTACT-26691264-9be6-58e8-9300-138d9eadaa87-attr-3-type" class="er entityLabel">string</text><rect height="24" width="80.8804931640625" y="75.015625" x="48.703125" class="er attributeBoxOdd"></rect><text style="dominant-baseline: middle; font-size: 10.2px;" transform="translate(53.703125,87.015625)" y="0" x="0" id="text-entity-CONTACT-26691264-9be6-58e8-9300-138d9eadaa87-attr-3-name" class="er entityLabel">title</text><rect height="24" width="48.703125" y="99.015625" x="0" class="er attributeBoxEven"></rect><text style="dominant-baseline: middle; font-size: 10.2px;" transform="translate(5,111.015625)" y="0" x="0" id="text-entity-CONTACT-26691264-9be6-58e8-9300-138d9eadaa87-attr-4-type" class="er entityLabel">int</text><rect height="24" width="80.8804931640625" y="99.015625" x="48.703125" class="er attributeBoxEven"></rect><text style="dominant-baseline: middle; font-size: 10.2px;" transform="translate(53.703125,111.015625)" y="0" x="0" id="text-entity-CONTACT-26691264-9be6-58e8-9300-138d9eadaa87-attr-4-name" class="er entityLabel">phoneNumber</text><rect height="24" width="48.703125" y="123.015625" x="0" class="er attributeBoxOdd"></rect><text style="dominant-baseline: middle; font-size: 10.2px;" transform="translate(5,135.015625)" y="0" x="0" id="text-entity-CONTACT-26691264-9be6-58e8-9300-138d9eadaa87-attr-5-type" class="er entityLabel">boolean</text><rect height="24" width="80.8804931640625" y="123.015625" x="48.703125" class="er attributeBoxOdd"></rect><text style="dominant-baseline: middle; font-size: 10.2px;" transform="translate(53.703125,135.015625)" y="0" x="0" id="text-entity-CONTACT-26691264-9be6-58e8-9300-138d9eadaa87-attr-5-name" class="er entityLabel">deleted</text></g><g transform="translate(259.33697509765625,562.03125 )" id="entity-USER-6e7e2962-0c6f-577d-a7fd-2ce3a0cfd2c8"><rect height="147.015625" width="130.15841674804688" y="0" x="0" class="er entityBox"></rect><text style="dominant-baseline: middle; text-anchor: middle; font-size: 12px;" transform="translate(65.07920837402344,13.5078125)" y="0" x="0" id="text-entity-USER-6e7e2962-0c6f-577d-a7fd-2ce3a0cfd2c8" class="er entityLabel">USER</text><rect height="24" width="48.703125" y="27.015625" x="0" class="er attributeBoxOdd"></rect><text style="dominant-baseline: middle; font-size: 10.2px;" transform="translate(5,39.015625)" y="0" x="0" id="text-entity-USER-6e7e2962-0c6f-577d-a7fd-2ce3a0cfd2c8-attr-1-type" class="er entityLabel">string</text><rect height="24" width="58.326873779296875" y="27.015625" x="48.703125" class="er attributeBoxOdd"></rect><text style="dominant-baseline: middle; font-size: 10.2px;" transform="translate(53.703125,39.015625)" y="0" x="0" id="text-entity-USER-6e7e2962-0c6f-577d-a7fd-2ce3a0cfd2c8-attr-1-name" class="er entityLabel">username</text><rect height="24" width="23.12841796875" y="27.015625" x="107.02999877929688" class="er attributeBoxOdd"></rect><text style="dominant-baseline: middle; font-size: 10.2px;" transform="translate(112.02999877929688,39.015625)" y="0" x="0" id="text-entity-USER-6e7e2962-0c6f-577d-a7fd-2ce3a0cfd2c8-attr-1-key" class="er entityLabel">PK</text><rect height="24" width="48.703125" y="51.015625" x="0" class="er attributeBoxEven"></rect><text style="dominant-baseline: middle; font-size: 10.2px;" transform="translate(5,63.015625)" y="0" x="0" id="text-entity-USER-6e7e2962-0c6f-577d-a7fd-2ce3a0cfd2c8-attr-2-type" class="er entityLabel">string</text><rect height="24" width="58.326873779296875" y="51.015625" x="48.703125" class="er attributeBoxEven"></rect><text style="dominant-baseline: middle; font-size: 10.2px;" transform="translate(53.703125,63.015625)" y="0" x="0" id="text-entity-USER-6e7e2962-0c6f-577d-a7fd-2ce3a0cfd2c8-attr-2-name" class="er entityLabel">password</text><rect height="24" width="23.12841796875" y="51.015625" x="107.02999877929688" class="er attributeBoxEven"></rect><text style="dominant-baseline: middle; font-size: 10.2px;" transform="translate(112.02999877929688,63.015625)" y="0" x="0" id="text-entity-USER-6e7e2962-0c6f-577d-a7fd-2ce3a0cfd2c8-attr-2-key" class="er entityLabel"></text><rect height="24" width="48.703125" y="75.015625" x="0" class="er attributeBoxOdd"></rect><text style="dominant-baseline: middle; font-size: 10.2px;" transform="translate(5,87.015625)" y="0" x="0" id="text-entity-USER-6e7e2962-0c6f-577d-a7fd-2ce3a0cfd2c8-attr-3-type" class="er entityLabel">string</text><rect height="24" width="58.326873779296875" y="75.015625" x="48.703125" class="er attributeBoxOdd"></rect><text style="dominant-baseline: middle; font-size: 10.2px;" transform="translate(53.703125,87.015625)" y="0" x="0" id="text-entity-USER-6e7e2962-0c6f-577d-a7fd-2ce3a0cfd2c8-attr-3-name" class="er entityLabel">role</text><rect height="24" width="23.12841796875" y="75.015625" x="107.02999877929688" class="er attributeBoxOdd"></rect><text style="dominant-baseline: middle; font-size: 10.2px;" transform="translate(112.02999877929688,87.015625)" y="0" x="0" id="text-entity-USER-6e7e2962-0c6f-577d-a7fd-2ce3a0cfd2c8-attr-3-key" class="er entityLabel"></text><rect height="24" width="48.703125" y="99.015625" x="0" class="er attributeBoxEven"></rect><text style="dominant-baseline: middle; font-size: 10.2px;" transform="translate(5,111.015625)" y="0" x="0" id="text-entity-USER-6e7e2962-0c6f-577d-a7fd-2ce3a0cfd2c8-attr-4-type" class="er entityLabel">int</text><rect height="24" width="58.326873779296875" y="99.015625" x="48.703125" class="er attributeBoxEven"></rect><text style="dominant-baseline: middle; font-size: 10.2px;" transform="translate(53.703125,111.015625)" y="0" x="0" id="text-entity-USER-6e7e2962-0c6f-577d-a7fd-2ce3a0cfd2c8-attr-4-name" class="er entityLabel">emailsent</text><rect height="24" width="23.12841796875" y="99.015625" x="107.02999877929688" class="er attributeBoxEven"></rect><text style="dominant-baseline: middle; font-size: 10.2px;" transform="translate(112.02999877929688,111.015625)" y="0" x="0" id="text-entity-USER-6e7e2962-0c6f-577d-a7fd-2ce3a0cfd2c8-attr-4-key" class="er entityLabel"></text><rect height="24" width="48.703125" y="123.015625" x="0" class="er attributeBoxOdd"></rect><text style="dominant-baseline: middle; font-size: 10.2px;" transform="translate(5,135.015625)" y="0" x="0" id="text-entity-USER-6e7e2962-0c6f-577d-a7fd-2ce3a0cfd2c8-attr-5-type" class="er entityLabel">boolean</text><rect height="24" width="58.326873779296875" y="123.015625" x="48.703125" class="er attributeBoxOdd"></rect><text style="dominant-baseline: middle; font-size: 10.2px;" transform="translate(53.703125,135.015625)" y="0" x="0" id="text-entity-USER-6e7e2962-0c6f-577d-a7fd-2ce3a0cfd2c8-attr-5-name" class="er entityLabel">deleted</text><rect height="24" width="23.12841796875" y="123.015625" x="107.02999877929688" class="er attributeBoxOdd"></rect><text style="dominant-baseline: middle; font-size: 10.2px;" transform="translate(112.02999877929688,135.015625)" y="0" x="0" id="text-entity-USER-6e7e2962-0c6f-577d-a7fd-2ce3a0cfd2c8-attr-5-key" class="er entityLabel"></text></g><g transform="translate(249.5836181640625,291.015625 )" id="entity-LEAD-7d2ac0e5-02ff-5290-a5ff-77d87271d16b"><rect height="171.015625" width="149.66513061523438" y="0" x="0" class="er entityBox"></rect><text style="dominant-baseline: middle; text-anchor: middle; font-size: 12px;" transform="translate(74.83256530761719,13.5078125)" y="0" x="0" id="text-entity-LEAD-7d2ac0e5-02ff-5290-a5ff-77d87271d16b" class="er entityLabel">LEAD</text><rect height="24" width="48.703125" y="27.015625" x="0" class="er attributeBoxOdd"></rect><text style="dominant-baseline: middle; font-size: 10.2px;" transform="translate(5,39.015625)" y="0" x="0" id="text-entity-LEAD-7d2ac0e5-02ff-5290-a5ff-77d87271d16b-attr-1-type" class="er entityLabel">string</text><rect height="24" width="100.96200561523438" y="27.015625" x="48.703125" class="er attributeBoxOdd"></rect><text style="dominant-baseline: middle; font-size: 10.2px;" transform="translate(53.703125,39.015625)" y="0" x="0" id="text-entity-LEAD-7d2ac0e5-02ff-5290-a5ff-77d87271d16b-attr-1-name" class="er entityLabel">leadName</text><rect height="24" width="48.703125" y="51.015625" x="0" class="er attributeBoxEven"></rect><text style="dominant-baseline: middle; font-size: 10.2px;" transform="translate(5,63.015625)" y="0" x="0" id="text-entity-LEAD-7d2ac0e5-02ff-5290-a5ff-77d87271d16b-attr-2-type" class="er entityLabel">string</text><rect height="24" width="100.96200561523438" y="51.015625" x="48.703125" class="er attributeBoxEven"></rect><text style="dominant-baseline: middle; font-size: 10.2px;" transform="translate(53.703125,63.015625)" y="0" x="0" id="text-entity-LEAD-7d2ac0e5-02ff-5290-a5ff-77d87271d16b-attr-2-name" class="er entityLabel">leadEmail</text><rect height="24" width="48.703125" y="75.015625" x="0" class="er attributeBoxOdd"></rect><text style="dominant-baseline: middle; font-size: 10.2px;" transform="translate(5,87.015625)" y="0" x="0" id="text-entity-LEAD-7d2ac0e5-02ff-5290-a5ff-77d87271d16b-attr-3-type" class="er entityLabel">string</text><rect height="24" width="100.96200561523438" y="75.015625" x="48.703125" class="er attributeBoxOdd"></rect><text style="dominant-baseline: middle; font-size: 10.2px;" transform="translate(53.703125,87.015625)" y="0" x="0" id="text-entity-LEAD-7d2ac0e5-02ff-5290-a5ff-77d87271d16b-attr-3-name" class="er entityLabel">leadPhoneNumber</text><rect height="24" width="48.703125" y="99.015625" x="0" class="er attributeBoxEven"></rect><text style="dominant-baseline: middle; font-size: 10.2px;" transform="translate(5,111.015625)" y="0" x="0" id="text-entity-LEAD-7d2ac0e5-02ff-5290-a5ff-77d87271d16b-attr-4-type" class="er entityLabel">string</text><rect height="24" width="100.96200561523438" y="99.015625" x="48.703125" class="er attributeBoxEven"></rect><text style="dominant-baseline: middle; font-size: 10.2px;" transform="translate(53.703125,111.015625)" y="0" x="0" id="text-entity-LEAD-7d2ac0e5-02ff-5290-a5ff-77d87271d16b-attr-4-name" class="er entityLabel">leadAddress</text><rect height="24" width="48.703125" y="123.015625" x="0" class="er attributeBoxOdd"></rect><text style="dominant-baseline: middle; font-size: 10.2px;" transform="translate(5,135.015625)" y="0" x="0" id="text-entity-LEAD-7d2ac0e5-02ff-5290-a5ff-77d87271d16b-attr-5-type" class="er entityLabel">string</text><rect height="24" width="100.96200561523438" y="123.015625" x="48.703125" class="er attributeBoxOdd"></rect><text style="dominant-baseline: middle; font-size: 10.2px;" transform="translate(53.703125,135.015625)" y="0" x="0" id="text-entity-LEAD-7d2ac0e5-02ff-5290-a5ff-77d87271d16b-attr-5-name" class="er entityLabel">leadSourceDetails</text><rect height="24" width="48.703125" y="147.015625" x="0" class="er attributeBoxEven"></rect><text style="dominant-baseline: middle; font-size: 10.2px;" transform="translate(5,159.015625)" y="0" x="0" id="text-entity-LEAD-7d2ac0e5-02ff-5290-a5ff-77d87271d16b-attr-6-type" class="er entityLabel">boolean</text><rect height="24" width="100.96200561523438" y="147.015625" x="48.703125" class="er attributeBoxEven"></rect><text style="dominant-baseline: middle; font-size: 10.2px;" transform="translate(53.703125,159.015625)" y="0" x="0" id="text-entity-LEAD-7d2ac0e5-02ff-5290-a5ff-77d87271d16b-attr-6-name" class="er entityLabel">deleted</text></g><g transform="translate(265.5890350341797,20 )" id="entity-EMAILHISTORY-0664e976-9040-58bf-817a-7fa124fe0dcd"><rect height="171.015625" width="117.654296875" y="0" x="0" class="er entityBox"></rect><text style="dominant-baseline: middle; text-anchor: middle; font-size: 12px;" transform="translate(58.8271484375,13.5078125)" y="0" x="0" id="text-entity-EMAILHISTORY-0664e976-9040-58bf-817a-7fa124fe0dcd" class="er entityLabel">EMAIL-HISTORY</text><rect height="24" width="46.97589111328125" y="27.015625" x="0" class="er attributeBoxOdd"></rect><text style="dominant-baseline: middle; font-size: 10.2px;" transform="translate(5,39.015625)" y="0" x="0" id="text-entity-EMAILHISTORY-0664e976-9040-58bf-817a-7fa124fe0dcd-attr-1-type" class="er entityLabel">string</text><rect height="24" width="70.67840576171875" y="27.015625" x="46.97589111328125" class="er attributeBoxOdd"></rect><text style="dominant-baseline: middle; font-size: 10.2px;" transform="translate(51.97589111328125,39.015625)" y="0" x="0" id="text-entity-EMAILHISTORY-0664e976-9040-58bf-817a-7fa124fe0dcd-attr-1-name" class="er entityLabel">recipient</text><rect height="24" width="46.97589111328125" y="51.015625" x="0" class="er attributeBoxEven"></rect><text style="dominant-baseline: middle; font-size: 10.2px;" transform="translate(5,63.015625)" y="0" x="0" id="text-entity-EMAILHISTORY-0664e976-9040-58bf-817a-7fa124fe0dcd-attr-2-type" class="er entityLabel">string</text><rect height="24" width="70.67840576171875" y="51.015625" x="46.97589111328125" class="er attributeBoxEven"></rect><text style="dominant-baseline: middle; font-size: 10.2px;" transform="translate(51.97589111328125,63.015625)" y="0" x="0" id="text-entity-EMAILHISTORY-0664e976-9040-58bf-817a-7fa124fe0dcd-attr-2-name" class="er entityLabel">subject</text><rect height="24" width="46.97589111328125" y="75.015625" x="0" class="er attributeBoxOdd"></rect><text style="dominant-baseline: middle; font-size: 10.2px;" transform="translate(5,87.015625)" y="0" x="0" id="text-entity-EMAILHISTORY-0664e976-9040-58bf-817a-7fa124fe0dcd-attr-3-type" class="er entityLabel">string</text><rect height="24" width="70.67840576171875" y="75.015625" x="46.97589111328125" class="er attributeBoxOdd"></rect><text style="dominant-baseline: middle; font-size: 10.2px;" transform="translate(51.97589111328125,87.015625)" y="0" x="0" id="text-entity-EMAILHISTORY-0664e976-9040-58bf-817a-7fa124fe0dcd-attr-3-name" class="er entityLabel">startDate</text><rect height="24" width="46.97589111328125" y="99.015625" x="0" class="er attributeBoxEven"></rect><text style="dominant-baseline: middle; font-size: 10.2px;" transform="translate(5,111.015625)" y="0" x="0" id="text-entity-EMAILHISTORY-0664e976-9040-58bf-817a-7fa124fe0dcd-attr-4-type" class="er entityLabel">string</text><rect height="24" width="70.67840576171875" y="99.015625" x="46.97589111328125" class="er attributeBoxEven"></rect><text style="dominant-baseline: middle; font-size: 10.2px;" transform="translate(51.97589111328125,111.015625)" y="0" x="0" id="text-entity-EMAILHISTORY-0664e976-9040-58bf-817a-7fa124fe0dcd-attr-4-name" class="er entityLabel">endDate</text><rect height="24" width="46.97589111328125" y="123.015625" x="0" class="er attributeBoxOdd"></rect><text style="dominant-baseline: middle; font-size: 10.2px;" transform="translate(5,135.015625)" y="0" x="0" id="text-entity-EMAILHISTORY-0664e976-9040-58bf-817a-7fa124fe0dcd-attr-5-type" class="er entityLabel">string</text><rect height="24" width="70.67840576171875" y="123.015625" x="46.97589111328125" class="er attributeBoxOdd"></rect><text style="dominant-baseline: middle; font-size: 10.2px;" transform="translate(51.97589111328125,135.015625)" y="0" x="0" id="text-entity-EMAILHISTORY-0664e976-9040-58bf-817a-7fa124fe0dcd-attr-5-name" class="er entityLabel">message</text><rect height="24" width="46.97589111328125" y="147.015625" x="0" class="er attributeBoxEven"></rect><text style="dominant-baseline: middle; font-size: 10.2px;" transform="translate(5,159.015625)" y="0" x="0" id="text-entity-EMAILHISTORY-0664e976-9040-58bf-817a-7fa124fe0dcd-attr-6-type" class="er entityLabel">date</text><rect height="24" width="70.67840576171875" y="147.015625" x="46.97589111328125" class="er attributeBoxEven"></rect><text style="dominant-baseline: middle; font-size: 10.2px;" transform="translate(51.97589111328125,159.015625)" y="0" x="0" id="text-entity-EMAILHISTORY-0664e976-9040-58bf-817a-7fa124fe0dcd-attr-6-name" class="er entityLabel">timestamp</text></g><rect height="17.015625" width="59.875" y="535.0774536132812" x="121.76705932617188" class="er relationshipLabelBox"></rect><text style="text-anchor: middle; dominant-baseline: middle; font-size: 12px;" y="543.5852661132812" x="151.70455932617188" id="rel189" class="er relationshipLabel">created by</text><rect height="17.015625" width="59.875" y="503.523193359375" x="294.4784851074219" class="er relationshipLabelBox"></rect><text style="text-anchor: middle; dominant-baseline: middle; font-size: 12px;" y="512.031005859375" x="324.4159851074219" id="rel190" class="er relationshipLabel">created by</text><rect height="17.015625" width="41.552734375" y="361.4986877441406" x="478.468994140625" class="er relationshipLabelBox"></rect><text style="text-anchor: middle; dominant-baseline: middle; font-size: 12px;" y="370.0065002441406" x="499.245361328125" id="rel191" class="er relationshipLabel">sent by</text><rect height="17.015625" width="59.875" y="232.5081787109375" x="294.4784851074219" class="er relationshipLabelBox"></rect><text style="text-anchor: middle; dominant-baseline: middle; font-size: 12px;" y="241.0159912109375" x="324.4159851074219" id="rel192" class="er relationshipLabel">created by</text><rect height="17.015625" width="59.875" y="195.6395721435547" x="125.07597351074219" class="er relationshipLabelBox"></rect><text style="text-anchor: middle; dominant-baseline: middle; font-size: 12px;" y="204.1473846435547" x="155.0134735107422" id="rel193" class="er relationshipLabel">created by</text></svg>